<?xml version="1.0" encoding="utf-8"?>
<!-- Generator: Adobe Illustrator 19.2.1, SVG Export Plug-In . SVG Version: 6.00 Build 0)  -->
<svg version="1.1" id="Layer_1" xmlns="http://www.w3.org/2000/svg" xmlns:xlink="http://www.w3.org/1999/xlink" x="0px" y="0px"
	 viewBox="0 0 1340.1 193.3" style="enable-background:new 0 0 1340.1 193.3;" xml:space="preserve">
<style type="text/css">
	.st0{fill:#39AA7C;}
	.st1{fill:#FFFFFF;}
	.st2{fill:#EFEFEF;}
</style>
<polygon class="st0" points="961.6,178.3 1028.8,178.3 995.2,128.2 "/>
<rect x="-3377.8" y="-2149.9" class="st1" width="2849.4" height="3815.2"/>
<rect x="-3377.8" y="-2149.9" class="st2" width="2849.4" height="386.3"/>
<g>
	<path class="st0" d="M-1440.3-1917.8h24.9c2.2,0,4.5,0.1,7.1,0.2c2.6,0.2,5.2,0.5,7.8,0.9c2.6,0.5,5.1,1.1,7.6,2
		c2.4,0.9,4.6,2,6.5,3.3c1.9,1.4,3.4,3.1,4.5,5.1c1.1,2,1.7,4.4,1.7,7.1c0,1.6-0.2,3.3-0.6,4.9s-1.1,3.1-2.1,4.5
		c-1,1.4-2.4,2.5-4.1,3.6c-1.7,1-3.9,1.7-6.6,2.1c2.9,0.2,5.5,0.8,7.8,2c2.3,1.2,4.2,2.6,5.8,4.4s2.8,3.7,3.6,5.8
		c0.8,2.1,1.2,4.2,1.2,6.2c0,2.8-0.6,5.4-1.7,8c-1.1,2.6-3,4.9-5.6,7s-6.1,3.7-10.4,4.9c-4.3,1.2-9.7,1.9-16.1,1.9h-31.4V-1917.8z
		 M-1409.6-1887.4c1.6,0,3.1-0.2,4.5-0.7c1.4-0.5,2.5-1.1,3.5-1.9c1-0.8,1.7-1.7,2.3-2.7c0.5-1,0.8-2.1,0.8-3.1c0-1.7-0.3-3-1-4.1
		s-1.7-1.9-3.2-2.6c-1.5-0.6-3.4-1.1-5.7-1.3s-5.2-0.4-8.5-0.4v16.7H-1409.6z M-1416.9-1857.3h9.5c3,0,5.2-0.8,6.7-2.3
		c1.5-1.5,2.2-3.6,2.2-6c0-1.5-0.3-2.7-0.8-3.8c-0.5-1-1.4-1.9-2.8-2.6c-1.4-0.7-3.2-1.2-5.6-1.5c-2.4-0.3-5.5-0.5-9.2-0.5V-1857.3z
		"/>
	<path class="st0" d="M-1362.5-1924.2h22.6v80.3h-22.6V-1924.2z"/>
	<path class="st0" d="M-1296.2-1842.4c-4.1,0-7.8-0.4-11-1.1c-3.2-0.8-6-1.8-8.4-3.2c-2.4-1.4-4.5-3-6.1-4.8
		c-1.7-1.9-3.1-3.9-4.1-6.1c-1-2.2-1.8-4.5-2.3-7c-0.5-2.4-0.7-4.9-0.7-7.4c0-2.5,0.2-4.9,0.7-7.3c0.5-2.4,1.2-4.7,2.3-7
		c1-2.2,2.4-4.3,4.1-6.1c1.7-1.9,3.7-3.5,6.1-4.9c2.4-1.4,5.2-2.5,8.4-3.2c3.2-0.8,6.9-1.2,11-1.2c4.1,0,7.8,0.4,11,1.2
		s6,1.9,8.4,3.2c2.4,1.4,4.5,3,6.1,4.9c1.7,1.9,3,3.9,4.1,6.1c1,2.2,1.8,4.5,2.3,7c0.5,2.4,0.7,4.9,0.7,7.3c0,2.5-0.2,5-0.7,7.4
		c-0.5,2.4-1.2,4.8-2.3,7c-1,2.2-2.4,4.2-4.1,6.1c-1.7,1.9-3.7,3.5-6.1,4.8c-2.4,1.4-5.2,2.4-8.4,3.2
		C-1288.4-1842.7-1292.1-1842.4-1296.2-1842.4z M-1306.2-1872c0,1.9,0.2,3.7,0.5,5.5c0.3,1.8,0.9,3.4,1.7,4.8
		c0.8,1.4,1.8,2.5,3.1,3.4c1.3,0.9,2.8,1.3,4.7,1.3c1.9,0,3.5-0.4,4.7-1.3c1.3-0.9,2.3-2,3.1-3.4c0.8-1.4,1.3-3,1.7-4.8
		c0.3-1.8,0.5-3.6,0.5-5.5c0-1.9-0.2-3.7-0.5-5.5c-0.3-1.8-0.9-3.4-1.7-4.8c-0.8-1.4-1.8-2.6-3.1-3.4s-2.8-1.3-4.7-1.3
		c-1.9,0-3.5,0.4-4.7,1.3c-1.3,0.9-2.3,2-3.1,3.4c-0.8,1.4-1.3,3-1.7,4.8C-1306-1875.7-1306.2-1873.9-1306.2-1872z"/>
	<path class="st0" d="M-1233.8-1872c0,2.5,0.3,4.8,0.9,6.6c0.6,1.9,1.5,3.4,2.6,4.7c1.1,1.2,2.5,2.2,4,2.8c1.6,0.6,3.3,0.9,5.3,0.9
		c2.5,0,4.9-0.3,7.1-1s4.5-1.6,6.8-2.8l3.3,13.6c-1.5,0.8-3.2,1.5-5,2.1c-1.8,0.6-3.6,1.1-5.5,1.5c-1.9,0.4-3.8,0.7-5.7,0.9
		c-1.9,0.2-3.8,0.3-5.7,0.3c-4.2,0-8.2-0.6-11.9-1.8c-3.7-1.2-7-3-9.8-5.4c-2.8-2.4-5-5.5-6.7-9.3s-2.5-8.1-2.5-13.2
		c0-5.1,0.8-9.5,2.5-13.2s3.9-6.8,6.7-9.3c2.8-2.4,6.1-4.3,9.8-5.4s7.7-1.8,11.9-1.8c1.8,0,3.7,0.1,5.7,0.3c1.9,0.2,3.8,0.5,5.7,0.9
		c1.9,0.4,3.7,0.9,5.5,1.5c1.8,0.6,3.4,1.3,5,2.1l-3.3,13.6c-2.3-1.2-4.6-2.1-6.8-2.8c-2.2-0.7-4.6-1-7.1-1c-2,0-3.7,0.3-5.3,0.9
		c-1.6,0.6-2.9,1.5-4,2.8c-1.1,1.3-2,2.8-2.6,4.7C-1233.5-1876.8-1233.8-1874.5-1233.8-1872z"/>
	<path class="st0" d="M-1146.9-1899.1h23.2l-21.5,25.4l22.5,29.8h-26.1l-17-26.6l-1.8,1.8v24.8h-22.6v-80.3h22.6v49L-1146.9-1899.1z
		"/>
	<path class="st0" d="M-980.6-1843.9h-22.5l0.5-3.6c0.1-1.1,0.3-2.4,0.4-3.8c0.1-1.4,0.2-2.8,0.3-4.3c-1,2.1-2.4,3.9-3.9,5.5
		c-1.6,1.6-3.3,3-5.3,4.2c-1.9,1.1-4,2-6.1,2.6c-2.2,0.6-4.3,0.9-6.5,0.9c-2.7,0-5.3-0.4-7.7-1.3c-2.4-0.9-4.6-2.3-6.5-4.2
		c-1.9-1.9-3.3-4.4-4.4-7.5c-1.1-3-1.6-6.7-1.6-11.1v-32.6h22.6v30.5c0,2.2,0.2,4,0.6,5.4c0.4,1.5,1,2.6,1.6,3.6
		c0.7,0.9,1.5,1.6,2.4,2c0.9,0.4,1.9,0.6,2.9,0.6c1.2,0,2.4-0.2,3.6-0.7c1.2-0.5,2.3-1.1,3.3-2c1-0.8,1.8-1.8,2.6-3
		c0.7-1.1,1.2-2.3,1.4-3.6v-32.8h22.6V-1843.9z"/>
	<path class="st0" d="M-880.9-1842.4c-1.9,0-3.7-0.2-5.6-0.7c-1.8-0.5-3.6-1.2-5.3-2.1c-1.7-0.9-3.2-2.1-4.5-3.4
		c-1.4-1.3-2.5-2.9-3.4-4.6v9.3h-22.6v-80.3h22.6v31.6c0.8-1.3,1.9-2.5,3.3-3.7c1.4-1.1,3-2.1,4.7-2.9c1.7-0.8,3.6-1.5,5.6-1.9
		c2-0.5,4-0.7,6-0.7c3.1,0,6.2,0.5,9.1,1.6c3,1,5.6,2.7,7.9,5.1c2.3,2.4,4.2,5.4,5.6,9.2c1.4,3.8,2.1,8.4,2.1,13.8
		c0,5.2-0.7,9.6-2.1,13.3c-1.4,3.7-3.2,6.8-5.5,9.2c-2.3,2.4-5,4.2-8.1,5.4C-874.2-1842.9-877.4-1842.4-880.9-1842.4z M-878-1871.9
		c0-2.9-0.3-5.3-0.9-7.2s-1.5-3.5-2.5-4.7c-1-1.2-2.2-2-3.5-2.5c-1.3-0.5-2.6-0.8-4-0.8s-2.7,0.3-3.9,0.8c-1.3,0.5-2.4,1.4-3.4,2.5
		s-1.8,2.7-2.4,4.7c-0.6,1.9-0.9,4.3-0.9,7.1c0,2.9,0.3,5.3,0.9,7.2c0.6,1.9,1.4,3.5,2.4,4.7c1,1.2,2.2,2,3.4,2.5
		c1.3,0.5,2.6,0.8,4,0.8c1.4,0,2.7-0.3,4-0.8c1.3-0.5,2.5-1.3,3.5-2.5c1-1.2,1.9-2.7,2.5-4.6S-878-1869.1-878-1871.9z"/>
	<path class="st0" d="M-791.6-1846.1c-3.3,1.1-6.8,2-10.6,2.7c-3.8,0.7-7.8,1.1-11.9,1.1c-4.5,0-8.8-0.6-12.9-1.8
		c-4.1-1.2-7.7-3-10.8-5.5s-5.6-5.7-7.4-9.5c-1.8-3.8-2.7-8.4-2.7-13.8c0-3,0.5-5.8,1.4-8.4c0.9-2.6,2.2-5,3.8-7.1
		c1.6-2.1,3.5-4,5.7-5.6c2.2-1.6,4.5-3,7-4.1c2.5-1.1,5.1-2,7.7-2.5c2.6-0.6,5.2-0.9,7.8-0.9c4,0,7.5,0.4,10.6,1.3
		c3.1,0.9,5.6,2.1,7.7,3.6c2,1.5,3.6,3.2,4.6,5.2c1,2,1.6,4.1,1.6,6.3c0,2.7-0.5,5-1.4,7c-0.9,1.9-2.2,3.5-3.7,4.8
		c-1.6,1.3-3.3,2.3-5.4,3.1c-2,0.8-4.2,1.3-6.5,1.7c-2.3,0.4-4.6,0.7-6.9,0.8c-2.4,0.1-4.6,0.2-6.7,0.2c-0.7,0-1.4,0-2.1,0
		c-0.7,0-1.3,0-2,0c0.3,2,0.8,3.7,1.6,5c0.8,1.4,1.8,2.5,3.1,3.3c1.2,0.9,2.7,1.5,4.3,1.8c1.6,0.4,3.4,0.5,5.2,0.5
		c1.4,0,2.9-0.1,4.5-0.3c1.6-0.2,3.2-0.5,4.8-0.9c1.6-0.4,3.2-0.8,4.9-1.3c1.6-0.5,3.2-1,4.7-1.5V-1846.1z M-825.1-1875.8
		c0.8,0,1.9-0.1,3.2-0.2c1.3-0.1,2.7-0.2,4.2-0.4s2.9-0.4,4.4-0.7c1.5-0.3,2.8-0.7,4-1.2c1.2-0.5,2.1-1.1,2.9-1.8
		c0.7-0.7,1.1-1.6,1.1-2.7c0-1.8-0.7-3.2-2.1-4.3c-1.4-1.1-3.4-1.6-5.9-1.6c-1.1,0-2.4,0.2-3.7,0.5c-1.3,0.3-2.6,1-3.7,1.9
		c-1.1,0.9-2.1,2.2-2.9,3.9C-824.5-1880.6-825-1878.5-825.1-1875.8z"/>
	<path class="st0" d="M-1098-1843.1v-64h-20.3v-17.2h69.7v17.2h-20.6v64H-1098z"/>
	<polygon class="st0" points="-968.5,-1843.1 -934.3,-1843.1 -951.4,-1868.5 	"/>
</g>
<rect x="1497.5" y="-1187.8" style="fill:none;" width="1519.4" height="147.7"/>
<text transform="matrix(1 0 0 1 1497.5193 -1054.246)" style="font-family:'Montserrat-ExtraBold'; font-size:180px;">BlockTube</text>
<path class="st0" d="M89.7,18.8c37.2,0,61.1,15.7,61.1,40.2c0,16.1-10.4,29.5-27,34.3c19.5,4.1,32,20,32,40.2
	c0,27.3-24.5,44.5-62.7,44.5H11.6V18.8H89.7z M58.6,81.3h28.6c9.3,0,15.2-5.4,15.2-13.9c0-8.2-5.9-13.2-15.2-13.2H58.6V81.3z
	 M58.6,142.8h28.6c12,0,19.5-5.9,19.5-15.2c0-8.6-7.5-14.1-19.5-14.1H58.6V142.8z"/>
<path class="st0" d="M176.7,178V9.5h45.9V178H176.7z"/>
<path class="st0" d="M379.5,116.2c0,38.2-27,63.4-68.6,63.4c-41.6,0-68.8-25.2-68.8-63.4c0-38.4,27.2-63.4,68.8-63.4
	C352.5,52.9,379.5,77.9,379.5,116.2z M288.4,116.7c0,16.6,8.9,27.5,22.5,27.5c13.4,0,22.3-10.9,22.3-27.5c0-16.4-8.9-27.5-22.3-27.5
	C297.3,89.2,288.4,100.3,288.4,116.7z"/>
<path class="st0" d="M509.8,85.1l-35.2,17.3c-4.3-7.7-11.1-12.3-19.8-12.3c-12.3,0-20.4,10.7-20.4,26.3c0,16.1,8.2,26.8,20.4,26.8
	c8.9,0,15.7-4.3,19.5-13.6l35.7,17.9c-9.5,20.4-30.4,32-57.7,32c-38.8,0-64.3-25-64.3-62.9c0-38.4,25.7-63.8,64.7-63.8
	C478.7,52.9,499.4,64.7,509.8,85.1z"/>
<path class="st0" d="M572.3,144.8V178h-45.9V9.5h45.9v82l34.1-37h51.8l-45.2,47.7l45.4,75.8h-54.3l-22.5-42.9L572.3,144.8z"/>
<path class="st0" d="M753.5,56.5V178h-47.5V56.5H660V18.8h139.9v37.7H753.5z"/>
<path class="st0" d="M937.2,178h-45.9v-18.4C883,172.8,870,180,853.4,180c-25.9,0-43.6-18.4-43.6-47.2V54.5h45.9v65.4
	c0,12,6.6,19.8,16.6,19.8c11.8-0.2,19.1-10,19.1-24.1V54.5h45.9V178z"/>
<path class="st0" d="M1187,116.9c0,37.9-22,62.7-56.1,62.7c-14.5,0-26.6-5.7-35-15.9V178h-45.9V9.5h45.9v59.3
	c8.2-10.2,20-15.9,33.8-15.9C1164.3,52.9,1187,78.3,1187,116.9z M1140.7,115.8c0-16.4-8.9-27.5-22.5-27.5
	c-13.2,0-22.3,11.1-22.3,27.5c0,16.3,9.1,27.5,22.3,27.5C1131.8,143.3,1140.7,132.1,1140.7,115.8z"/>
<path class="st0" d="M1325.1,127.4H1242c3.6,11.8,12.3,18.4,24.1,18.4c9.8,0,19.1-4.3,27.2-11.8l23.8,23.4
	c-12.9,14.3-31.6,22.3-55,22.3c-41.3,0-66.5-25-66.5-62.9c0-38.6,26.1-63.8,65.2-63.8C1304.2,52.9,1327.8,81.9,1325.1,127.4z
	 M1279.9,104.9c0.2-12.3-7.5-20.9-18.6-20.9c-10.7,0-17.9,8.4-20.2,20.9H1279.9z"/>
</svg>
